# xmcd
#
# Track frame offsets:
#	150
#	2325
#	19860
#	36627
#	54459
#	69223
#	87691
#	111329
#	125093
#	147479
#	158745
#	179925
#	196586
#	211621
#
# Disc length: 3178 seconds
#
# Revision: 1
# Processed by: cddbd v1.5.2PL0 Copyright (c) Steve Scherf et al.
# Submitted via: dBpowerAMP V4.0
#
DISCID=c70c680e
DTITLE=Josh Turner - Live At The Ryman
DYEAR=2007
DGENRE=Country
TTITLE0=Introduction
TTITLE1=Way Down South
TTITLE2=What It Ain't
TTITLE3=She'll Go On You
TTITLE4=Lord Have Mercy On A Country Boy
TTITLE5=Silver Wings
TTITLE6=Backwoods Boy
TTITLE7=Angels Fall Sometimes
TTITLE8=Loretta Lynn's Lincoln
TTITLE9=I'll Never Get Out Of This World Alive
TTITLE10=Band Intro
TTITLE11=Gravity
TTITLE12=He Stopped Loving Her Today
TTITLE13=Long Black Train
EXTD=
EXTT0=
EXTT1=
EXTT2=
EXTT3=
EXTT4=
EXTT5=
EXTT6=
EXTT7=
EXTT8=
EXTT9=
EXTT10=
EXTT11=
EXTT12=
EXTT13=
PLAYORDER=
